<svg id="Layer_1" data-name="Layer 1" xmlns="http://www.w3.org/2000/svg" viewBox="0 0 683.08 314" fill="#fff"><defs><style>.cls-1{fill:#fff;}.cls-2{fill:#fff;}</style></defs><path class="cls-1" d="M116.61,195.22a21.58,21.58,0,0,0,21.59-21.59V58.71a21.6,21.6,0,1,0-43.19,0V173.63A21.59,21.59,0,0,0,116.61,195.22Z"/><path class="cls-2" d="M209.17,85.08V70H180V85.08h15.1v15.33h14v15h-14v-15H180v15h14.41v13.66H180v41.22a63.42,63.42,0,1,1-126.84,0V143.23h.1V68.1H10V170.28a106.61,106.61,0,0,0,213.22,0V85.08Z"/><path class="cls-2" d="M209.16,55V70h14V55ZM193.83,41.3V55h14.64V41.3Z"/><path d="M306.41,37.11h18.84v93.78H306.41Z"/><path d="M446.38,93.14v37.75H428.46V93.14c0-11.93-3.38-16.47-11.75-16.47-9.66,0-14.08,6-14.08,16.47v37.75H384.71V93.14c0-11.93-3.37-16.47-11.75-16.47-9.66,0-14.08,6-14.08,16.47v37.75H341V61.08h16.76l.64,6.4C363.3,62,370.28,58.76,379,58.76c8.38,0,15.88,3,20.13,12.74,4.94-7.86,13-12.74,23.62-12.74C435.5,58.76,446.38,65.91,446.38,93.14Z"/><path d="M504,58.17l-2.91,19.67c-.7-.06-1.51-.06-2.33-.06-7.85,0-19.37,3-19.37,24.08v29H461.5V61.08h16.76l.93,9.37A31.42,31.42,0,0,1,504,58.17Z"/><path d="M581,61.08v69.81H564.24l-.76-7.68c-5.35,6.46-13,10-22.28,10-21.52,0-34-18.91-34-37.17,0-20.48,14.42-37.29,34.15-37.29,9,0,16.69,3.37,22.1,9.89l.76-7.57ZM563.07,95.87c0-11.92-9-19.2-18.79-19.2a19.16,19.16,0,0,0-19.14,19.14c0,9.78,7.45,19.49,19.14,19.49C554.93,115.3,563.07,107.27,563.07,95.87Z"/><path d="M664.24,61.08l-41.54,96H603.91L617.82,125l-27-63.88H610.2l16.17,44,19.08-44Z"/><path d="M381.86,202c0,28.33-18.68,46.83-47.24,46.83H309.2V155h25.42C363.18,155,381.86,173.62,381.86,202Zm-5.7,0c0-24.9-16.47-41.36-41.6-41.36H314.84V243.2h19.9C359.75,243.2,376.16,226.85,376.16,202Z"/><path d="M397.22,161.41a4.36,4.36,0,1,1,4.36,4.36A4.32,4.32,0,0,1,397.22,161.41ZM398.85,179h5.46v69.81h-5.46Z"/><path d="M488.32,179v63.53c-.12,19.14-13.79,34.33-34.38,34.33-12,0-23.56-4.6-29.38-13.09l4.07-3.38c5.18,7.22,15.19,11,25.31,11,17.39,0,28.74-12.86,28.91-28.86V236.1c-5.41,9.54-16.06,14.61-27.23,14.61-17.85,0-34.84-14.31-34.84-36.77s17-36.77,34.84-36.77c11.06,0,21.76,5.65,27.23,15.07v-1.57l.23-11.64Zm-5.47,43.46V205.21c-1.4-13.9-13.79-22.57-26.59-22.57-15,0-30,11.93-30,31.3s15,31.3,30,31.3C469.12,245.24,481.45,237,482.85,222.49Z"/><path d="M508.1,161.41a4.37,4.37,0,1,1,4.36,4.36A4.32,4.32,0,0,1,508.1,161.41ZM509.73,179h5.47v69.81h-5.47Z"/><path d="M539,228.25V184.39h-9.31V179.5h2.68c5.12,0,7.1-2.21,7.1-7.68v-5.35h5V179h22.69v5.36H544.46v43.86c0,10.24,4.94,16.46,13.61,16.46a34,34,0,0,0,9.54-2v5.46a34.5,34.5,0,0,1-10.7,1.81C545.68,250,539,241.92,539,228.25Z"/><path d="M643,179v69.81h-5.24l-.17-11.51V236.1c-5.41,9.54-16.06,14.61-27.23,14.61-17.86,0-34.85-14.31-34.85-36.77s17.05-36.77,34.85-36.77c11,0,21.76,5.65,27.23,15.07v-1.45l.17-11.76Zm-5.41,43.46V205.21c-1.4-13.9-13.79-22.57-26.59-22.57-15,0-30,11.93-30,31.3s15,31.3,30,31.3C623.87,245.24,636.2,237,637.6,222.49Z"/><path d="M662.84,152.86h5.47v96h-5.47Z" fill="#fff"/><rect x="263" y="6.64" width="5.96" height="300.72"/></svg>